<svg width="18" height="17" viewBox="0 0 18 17" fill="none" xmlns="http://www.w3.org/2000/svg">
<g clip-path="url(#clip0_260_468)">
<path d="M8.66797 14H1.16797C0.902752 14 0.648398 13.8946 0.460862 13.7071C0.273326 13.5196 0.167969 13.2652 0.167969 13V3C0.167969 2.73478 0.273326 2.48043 0.460862 2.29289C0.648398 2.10536 0.902752 2 1.16797 2H15.168C15.4332 2 15.6875 2.10536 15.8751 2.29289C16.0626 2.48043 16.168 2.73478 16.168 3V8.185C15.5019 7.33662 14.5329 6.77935 13.4646 6.63022C12.3964 6.4811 11.3119 6.75172 10.4389 7.38526C9.5659 8.0188 8.97237 8.96596 8.78294 10.0278C8.59351 11.0897 8.82291 12.1837 9.42297 13.08L8.95797 13.65L8.66797 14ZM2.66797 5V5.8H11.168V5H2.66797ZM2.66797 7.8H8.16797V7H2.66797V7.8ZM2.66797 11.3H7.66797V10.5H2.66797V11.3Z" fill="#CDCDCD"/>
<path d="M16.0848 10.7946C16.0862 10.2674 15.9566 9.74816 15.7078 9.28337C15.459 8.81857 15.0987 8.42282 14.6592 8.1316C14.2197 7.84037 13.7149 7.6628 13.1898 7.61479C12.6648 7.56679 12.1361 7.64986 11.6511 7.85656C11.1661 8.06326 10.74 8.38711 10.411 8.79907C10.0821 9.21103 9.86049 9.69822 9.7662 10.2169C9.67191 10.7356 9.70785 11.2696 9.8708 11.771C10.0338 12.2724 10.3186 12.7255 10.6998 13.0896L9.72983 14.2746L10.1798 16.0796L12.0098 13.8496C12.5891 14.0209 13.2056 14.0209 13.7848 13.8496L15.6148 16.0796L16.0648 14.2746L15.0948 13.0896C15.4068 12.7942 15.6554 12.4384 15.8256 12.0438C15.9958 11.6493 16.084 11.2243 16.0848 10.7946ZM10.7148 10.7946C10.7089 10.3613 10.832 9.9359 11.0684 9.57266C11.3048 9.20941 11.644 8.92469 12.0427 8.75471C12.4414 8.58472 12.8816 8.53714 13.3074 8.61803C13.7332 8.69893 14.1254 8.90462 14.4339 9.20897C14.7425 9.51332 14.9536 9.90257 15.0404 10.3272C15.1272 10.7519 15.0857 11.1927 14.9212 11.5937C14.7568 11.9947 14.4768 12.3378 14.1168 12.5792C13.7569 12.8207 13.3333 12.9496 12.8998 12.9496C12.3256 12.951 11.7741 12.7252 11.3657 12.3215C10.9573 11.9177 10.7251 11.3689 10.7198 10.7946H10.7148Z" fill="#CDCDCD"/>
</g>
<defs>
<clipPath id="clip0_260_468">
<rect width="18" height="18" fill="white" transform="translate(-0.832031 -1)"/>
</clipPath>
</defs>
</svg>
