<svg width="19" height="18" viewBox="0 0 19 18" fill="none" xmlns="http://www.w3.org/2000/svg">
<path d="M3.16797 4.5H1.66797V15C1.66797 15.825 2.34297 16.5 3.16797 16.5H13.668V15H3.16797V4.5ZM15.168 1.5H6.16797C5.34297 1.5 4.66797 2.175 4.66797 3V12C4.66797 12.825 5.34297 13.5 6.16797 13.5H15.168C15.993 13.5 16.668 12.825 16.668 12V3C16.668 2.175 15.993 1.5 15.168 1.5ZM14.418 8.25H6.91797V6.75H14.418V8.25ZM11.418 11.25H6.91797V9.75H11.418V11.25ZM14.418 5.25H6.91797V3.75H14.418V5.25Z" fill="#CDCDCD"/>
</svg>
